<?xml version="1.0" encoding="UTF-8" standalone="no"?>
<svg
   xmlns:dc="http://purl.org/dc/elements/1.1/"
   xmlns:cc="http://creativecommons.org/ns#"
   xmlns:rdf="http://www.w3.org/1999/02/22-rdf-syntax-ns#"
   xmlns:svg="http://www.w3.org/2000/svg"
   xmlns="http://www.w3.org/2000/svg"
   viewBox="0 0 743.70001 1052.55"
   height="1052.55"
   width="743.70001"
   xml:space="preserve"
   version="1.1"
   id="svg2"><metadata
     id="metadata8"><rdf:RDF><cc:Work
         rdf:about=""><dc:format>image/svg+xml</dc:format><dc:type
           rdf:resource="http://purl.org/dc/dcmitype/StillImage" /></cc:Work></rdf:RDF></metadata><defs
     id="defs6"><clipPath
       id="clipPath16"
       clipPathUnits="userSpaceOnUse"><path
         style="clip-rule:evenodd"
         id="path18"
         d="M 8.866e-6,0 594.96001,0 l 0,842.04 L 8.866e-6,842.04 8.866e-6,0 Z" /></clipPath><clipPath
       id="clipPath28"
       clipPathUnits="userSpaceOnUse"><path
         style="clip-rule:evenodd"
         id="path30"
         d="M 8.866e-6,0 594.96001,0 l 0,842.04 L 8.866e-6,842.04 8.866e-6,0 Z" /></clipPath><clipPath
       id="clipPath36"
       clipPathUnits="userSpaceOnUse"><path
         style="clip-rule:evenodd"
         id="path38"
         d="M 8.866e-6,0 594.96001,0 l 0,842.04 L 8.866e-6,842.04 8.866e-6,0 Z" /></clipPath></defs><g
     transform="matrix(1.25,0,0,-1.25,0,1052.55)"
     id="g10"><g
       id="g12"><g
         clip-path="url(#clipPath16)"
         id="g14"><text
           id="text20"
           style="font-variant:normal;font-weight:bold;font-size:48px;font-family:Arial;-inkscape-font-specification:Arial-BoldMT;writing-mode:lr-tb;fill:#000000;fill-opacity:1;fill-rule:nonzero;stroke:none"
           transform="matrix(1,0,0,-1,72.024,725.14)"><tspan
             id="tspan22"
             y="0"
             x="0 34.655998 48 74.688004 104.016 130.70399 157.392 170.73599 205.392 234.72 250.70399 266.68799 309.35999 336.048">Bianca Hoffman</tspan></text>
</g></g><g
       id="g24"><g
         clip-path="url(#clipPath28)"
         id="g26" /></g><g
       id="g32"><g
         clip-path="url(#clipPath36)"
         id="g34" /></g></g></svg>